solid OpenSCAD_Model
  facet normal -2.22045e-16 -4.93038e-32 1
    outer loop
      vertex -1 1 1.5
      vertex -7 1 1.5
      vertex -7 -1 1.5
    endloop
  endfacet
  facet normal -2.22045e-16 -4.93038e-32 1
    outer loop
      vertex -1 -1 1.5
      vertex -1 1 1.5
      vertex -7 -1 1.5
    endloop
  endfacet
  facet normal -1 -2.22045e-16 -2.22045e-16
    outer loop
      vertex -7 1 1.5
      vertex -7 1 -1.5
      vertex -7 -1 1.5
    endloop
  endfacet
  facet normal -1 -2.22045e-16 -2.22045e-16
    outer loop
      vertex -7 -1 1.5
      vertex -7 1 -1.5
      vertex -7 -1 -1.5
    endloop
  endfacet
  facet normal -2.22045e-16 1 -4.93038e-32
    outer loop
      vertex -6.5 1 -1.5
      vertex -7 1 -1.5
      vertex -6.5 1 -1.44329e-15
    endloop
  endfacet
  facet normal -2.22045e-16 1 -4.93038e-32
    outer loop
      vertex -1.5 1 0
      vertex -1 1 1.5
      vertex -1 1 0
    endloop
  endfacet
  facet normal -2.22045e-16 1 -4.93038e-32
    outer loop
      vertex -7 1 1.5
      vertex -1 1 1.5
      vertex -6.5 1 -1.44329e-15
    endloop
  endfacet
  facet normal -2.22045e-16 1 -4.93038e-32
    outer loop
      vertex -7 1 1.5
      vertex -6.5 1 -1.44329e-15
      vertex -7 1 -1.5
    endloop
  endfacet
  facet normal -2.22045e-16 1 -4.93038e-32
    outer loop
      vertex -6.5 1 -1.44329e-15
      vertex -1 1 1.5
      vertex -1.5 1 0
    endloop
  endfacet
  facet normal -2.22045e-16 1 -4.93038e-32
    outer loop
      vertex -6.5 1 -1.44329e-15
      vertex -1.5 1 0
      vertex -1.5 1 -3.33067e-16
    endloop
  endfacet
  facet normal -1 0 0
    outer loop
      vertex -1 -7 -1.5
      vertex -1 -7 1.5
      vertex -1 -6.5 -1.5
    endloop
  endfacet
  facet normal -1 0 0
    outer loop
      vertex -1 -6.5 0
      vertex -1 -7 1.5
      vertex -1 -3.27579 1.5
    endloop
  endfacet
  facet normal -1 0 0
    outer loop
      vertex -1 1 1.5
      vertex -1 -3.27579 1.5
      vertex -1 3.27579 1.5
    endloop
  endfacet
  facet normal -1 0 0
    outer loop
      vertex -1 6.5 -1.5
      vertex -1 7 1.5
      vertex -1 7 -1.5
    endloop
  endfacet
  facet normal -1 0 0
    outer loop
      vertex -1 6.5 0
      vertex -1 7 1.5
      vertex -1 6.5 -1.5
    endloop
  endfacet
  facet normal -1 0 0
    outer loop
      vertex -1 1 0
      vertex -1 7 1.5
      vertex -1 6.5 0
    endloop
  endfacet
  facet normal -1 0 0
    outer loop
      vertex -1 -1 1.5
      vertex -1 -3.27579 1.5
      vertex -1 1 1.5
    endloop
  endfacet
  facet normal -1 0 0
    outer loop
      vertex -1 -6.5 0
      vertex -1 -1 1.5
      vertex -1 -1 0
    endloop
  endfacet
  facet normal -1 0 0
    outer loop
      vertex -1 -6.5 -1.5
      vertex -1 -7 1.5
      vertex -1 -6.5 0
    endloop
  endfacet
  facet normal -1 0 0
    outer loop
      vertex -1 1 1.5
      vertex -1 3.27579 1.5
      vertex -1 7 1.5
    endloop
  endfacet
  facet normal -1 0 0
    outer loop
      vertex -1 1 1.5
      vertex -1 7 1.5
      vertex -1 1 0
    endloop
  endfacet
  facet normal -1 0 0
    outer loop
      vertex -1 -6.5 0
      vertex -1 -3.27579 1.5
      vertex -1 -1 1.5
    endloop
  endfacet
  facet normal 2.22045e-16 -1 4.93038e-32
    outer loop
      vertex -6.5 -1 -1.44329e-15
      vertex -7 -1 1.5
      vertex -7 -1 -1.5
    endloop
  endfacet
  facet normal 2.22045e-16 -1 4.93038e-32
    outer loop
      vertex -1.5 -1 0
      vertex -1 -1 0
      vertex -1 -1 1.5
    endloop
  endfacet
  facet normal 2.22045e-16 -1 4.93038e-32
    outer loop
      vertex -6.5 -1 -1.44329e-15
      vertex -1.5 -1 0
      vertex -1 -1 1.5
    endloop
  endfacet
  facet normal 2.22045e-16 -1 4.93038e-32
    outer loop
      vertex -1 -1 1.5
      vertex -7 -1 1.5
      vertex -6.5 -1 -1.44329e-15
    endloop
  endfacet
  facet normal 2.22045e-16 -1 4.93038e-32
    outer loop
      vertex -6.5 -1 -1.5
      vertex -6.5 -1 -1.44329e-15
      vertex -7 -1 -1.5
    endloop
  endfacet
  facet normal 2.22045e-16 -1 4.93038e-32
    outer loop
      vertex -6.5 -1 -1.44329e-15
      vertex -1.5 -1 -3.33067e-16
      vertex -1.5 -1 0
    endloop
  endfacet
  facet normal 2.22045e-16 4.93038e-32 -1
    outer loop
      vertex -7 1 -1.5
      vertex -6.5 1 -1.5
      vertex -7 -1 -1.5
    endloop
  endfacet
  facet normal 2.22045e-16 4.93038e-32 -1
    outer loop
      vertex -7 -1 -1.5
      vertex -6.5 1 -1.5
      vertex -6.5 -1 -1.5
    endloop
  endfacet
  facet normal 1 2.22045e-16 2.22045e-16
    outer loop
      vertex -6.5 -1 -1.44329e-15
      vertex -6.5 -1 -1.5
      vertex -6.5 1 -1.5
    endloop
  endfacet
  facet normal 1 2.22045e-16 2.22045e-16
    outer loop
      vertex -6.5 1 -1.44329e-15
      vertex -6.5 -1 -1.44329e-15
      vertex -6.5 1 -1.5
    endloop
  endfacet
  facet normal 2.22045e-16 4.93038e-32 -1
    outer loop
      vertex -1.5 -1 -3.33067e-16
      vertex -6.5 -1 -1.44329e-15
      vertex -1.5 1 -3.33067e-16
    endloop
  endfacet
  facet normal 2.22045e-16 4.93038e-32 -1
    outer loop
      vertex -1.5 1 -3.33067e-16
      vertex -6.5 -1 -1.44329e-15
      vertex -6.5 1 -1.44329e-15
    endloop
  endfacet
  facet normal 1 0 0
    outer loop
      vertex -1.5 1 -3.33067e-16
      vertex -1.5 1 0
      vertex -1.5 -1 0
    endloop
  endfacet
  facet normal 1 0 0
    outer loop
      vertex -1.5 -1 -3.33067e-16
      vertex -1.5 1 -3.33067e-16
      vertex -1.5 -1 0
    endloop
  endfacet
  facet normal 0 0 -1
    outer loop
      vertex -1 1 0
      vertex -1 6.5 0
      vertex 1 6.5 0
    endloop
  endfacet
  facet normal 0 0 -1
    outer loop
      vertex -5.55112e-16 1.5 0
      vertex 1 6.5 0
      vertex 1 1.5 0
    endloop
  endfacet
  facet normal 0 0 -1
    outer loop
      vertex -1 1 0
      vertex 1 6.5 0
      vertex -5.55112e-16 1.5 0
    endloop
  endfacet
  facet normal 0 0 -1
    outer loop
      vertex -1.5 -1 0
      vertex -1.5 1 0
      vertex -1 -1 0
    endloop
  endfacet
  facet normal 0 0 -1
    outer loop
      vertex -1 1 0
      vertex 1.11022e-16 -1.5 0
      vertex -1.5 1 0
    endloop
  endfacet
  facet normal 0 0 -1
    outer loop
      vertex 1.11022e-16 -1.5 0
      vertex 1 -1.5 0
      vertex 1 -6.5 0
    endloop
  endfacet
  facet normal 0 0 -1
    outer loop
      vertex 1.11022e-16 -1.5 0
      vertex 1 -6.5 0
      vertex -1.5 1 0
    endloop
  endfacet
  facet normal 0 0 -1
    outer loop
      vertex 1 -6.5 0
      vertex -1 -6.5 0
      vertex -1 -1 0
    endloop
  endfacet
  facet normal 0 0 -1
    outer loop
      vertex 1 -6.5 0
      vertex -1 -1 0
      vertex -1.5 1 0
    endloop
  endfacet
  facet normal 0 0 -1
    outer loop
      vertex 1.11022e-16 -1.5 0
      vertex -1 1 0
      vertex -5.55112e-16 1.5 0
    endloop
  endfacet
  facet normal 0 0 -1
    outer loop
      vertex -1 -7 -1.5
      vertex -1 -6.5 -1.5
      vertex 1 -7 -1.5
    endloop
  endfacet
  facet normal 0 0 -1
    outer loop
      vertex 1 -7 -1.5
      vertex -1 -6.5 -1.5
      vertex 1 -6.5 -1.5
    endloop
  endfacet
  facet normal 0 1 0
    outer loop
      vertex 1 -6.5 0
      vertex 1 -6.5 -1.5
      vertex -1 -6.5 0
    endloop
  endfacet
  facet normal 0 1 0
    outer loop
      vertex -1 -6.5 0
      vertex 1 -6.5 -1.5
      vertex -1 -6.5 -1.5
    endloop
  endfacet
  facet normal 0 -1 0
    outer loop
      vertex 1 6.5 -1.5
      vertex 1 6.5 0
      vertex -1 6.5 0
    endloop
  endfacet
  facet normal 0 -1 0
    outer loop
      vertex -1 6.5 -1.5
      vertex 1 6.5 -1.5
      vertex -1 6.5 0
    endloop
  endfacet
  facet normal 0 0 -1
    outer loop
      vertex -1 6.5 -1.5
      vertex -1 7 -1.5
      vertex 1 6.5 -1.5
    endloop
  endfacet
  facet normal 0 0 -1
    outer loop
      vertex 1 6.5 -1.5
      vertex -1 7 -1.5
      vertex 1 7 -1.5
    endloop
  endfacet
  facet normal 0 1 0
    outer loop
      vertex -1 7 -1.5
      vertex -1 7 1.5
      vertex 1 7 -1.5
    endloop
  endfacet
  facet normal 0 1 0
    outer loop
      vertex 1 7 -1.5
      vertex -1 7 1.5
      vertex 1 7 1.5
    endloop
  endfacet
  facet normal 0 0 1
    outer loop
      vertex -1 7 1.5
      vertex -1 3.27579 1.5
      vertex 0 3.69 1.5
    endloop
  endfacet
  facet normal 0 0 1
    outer loop
      vertex 1 3.27579 1.5
      vertex -1 7 1.5
      vertex 0 3.69 1.5
    endloop
  endfacet
  facet normal 0 0 1
    outer loop
      vertex 1 3.27579 1.5
      vertex 1 7 1.5
      vertex -1 7 1.5
    endloop
  endfacet
  facet normal 0 0 -1
    outer loop
      vertex -1 3.27579 1.5
      vertex -1 -3.27579 1.5
      vertex -2.60922 2.60922 1.5
    endloop
  endfacet
  facet normal 0 0 -1
    outer loop
      vertex -2.60922 2.60922 1.5
      vertex -1 -3.27579 1.5
      vertex -2.60922 -2.60922 1.5
    endloop
  endfacet
  facet normal 0 0 -1
    outer loop
      vertex -2.60922 2.60922 1.5
      vertex -2.60922 -2.60922 1.5
      vertex -3.69 0 1.5
    endloop
  endfacet
  facet normal -0.382683 0.92388 0
    outer loop
      vertex -2.60922 2.60922 1.5
      vertex -2.60922 2.60922 7.5
      vertex -1 3.27579 1.5
    endloop
  endfacet
  facet normal -0.382683 0.92388 0
    outer loop
      vertex -1 3.27579 1.5
      vertex -2.60922 2.60922 7.5
      vertex 0 3.69 7.5
    endloop
  endfacet
  facet normal -0.382683 0.92388 0
    outer loop
      vertex -1 3.27579 1.5
      vertex 0 3.69 7.5
      vertex 0 3.69 1.5
    endloop
  endfacet
  facet normal 0 0 1
    outer loop
      vertex -1 -3.27579 1.5
      vertex -1 -7 1.5
      vertex 1 -7 1.5
    endloop
  endfacet
  facet normal 0 0 1
    outer loop
      vertex 0 -3.69 1.5
      vertex -1 -3.27579 1.5
      vertex 1 -7 1.5
    endloop
  endfacet
  facet normal 0 0 1
    outer loop
      vertex 1 -3.27579 1.5
      vertex 0 -3.69 1.5
      vertex 1 -7 1.5
    endloop
  endfacet
  facet normal -0.382683 -0.92388 0
    outer loop
      vertex -2.60922 -2.60922 7.5
      vertex -2.60922 -2.60922 1.5
      vertex -1 -3.27579 1.5
    endloop
  endfacet
  facet normal -0.382683 -0.92388 0
    outer loop
      vertex 0 -3.69 7.5
      vertex -2.60922 -2.60922 7.5
      vertex 0 -3.69 1.5
    endloop
  endfacet
  facet normal -0.382683 -0.92388 0
    outer loop
      vertex 0 -3.69 1.5
      vertex -2.60922 -2.60922 7.5
      vertex -1 -3.27579 1.5
    endloop
  endfacet
  facet normal 0 -1 0
    outer loop
      vertex -1 -7 1.5
      vertex -1 -7 -1.5
      vertex 1 -7 -1.5
    endloop
  endfacet
  facet normal 0 -1 0
    outer loop
      vertex 1 -7 1.5
      vertex -1 -7 1.5
      vertex 1 -7 -1.5
    endloop
  endfacet
  facet normal 1 0 0
    outer loop
      vertex 1 -7 1.5
      vertex 1 -7 -1.5
      vertex 1 -6.5 -1.5
    endloop
  endfacet
  facet normal 1 0 0
    outer loop
      vertex 1 -1.5 0
      vertex 1 -7 1.5
      vertex 1 -6.5 0
    endloop
  endfacet
  facet normal 1 0 0
    outer loop
      vertex 1 -6.5 0
      vertex 1 -7 1.5
      vertex 1 -6.5 -1.5
    endloop
  endfacet
  facet normal 1 0 0
    outer loop
      vertex 1 -1.5 2.22045e-16
      vertex 1 -7 1.5
      vertex 1 -1.5 0
    endloop
  endfacet
  facet normal 1 0 0
    outer loop
      vertex 1 -1 2.22045e-16
      vertex 1 -7 1.5
      vertex 1 -1.5 2.22045e-16
    endloop
  endfacet
  facet normal 1 0 0
    outer loop
      vertex 1 -3.27579 1.5
      vertex 1 -7 1.5
      vertex 1 -1 2.22045e-16
    endloop
  endfacet
  facet normal 1 0 0
    outer loop
      vertex 1 -1 1.5
      vertex 1 -3.27579 1.5
      vertex 1 -1 2.22045e-16
    endloop
  endfacet
  facet normal -2.22045e-16 1 -4.93038e-32
    outer loop
      vertex 1 -1.5 2.22045e-16
      vertex 1 -1.5 0
      vertex 1.11022e-16 -1.5 0
    endloop
  endfacet
  facet normal 2.22045e-16 4.93038e-32 -1
    outer loop
      vertex 1 1 2.22045e-16
      vertex 6.5 1 1.44329e-15
      vertex 6.5 -1 1.44329e-15
    endloop
  endfacet
  facet normal 2.22045e-16 4.93038e-32 -1
    outer loop
      vertex 1 1 2.22045e-16
      vertex 6.5 -1 1.44329e-15
      vertex 1 -1 2.22045e-16
    endloop
  endfacet
  facet normal 2.22045e-16 4.93038e-32 -1
    outer loop
      vertex 1 1 2.22045e-16
      vertex 1.11022e-16 -1.5 0
      vertex 1 1.5 2.22045e-16
    endloop
  endfacet
  facet normal 2.22045e-16 4.93038e-32 -1
    outer loop
      vertex 1 -1 2.22045e-16
      vertex 1 -1.5 2.22045e-16
      vertex 1.11022e-16 -1.5 0
    endloop
  endfacet
  facet normal 2.22045e-16 4.93038e-32 -1
    outer loop
      vertex 1 -1 2.22045e-16
      vertex 1.11022e-16 -1.5 0
      vertex 1 1 2.22045e-16
    endloop
  endfacet
  facet normal 2.22045e-16 4.93038e-32 -1
    outer loop
      vertex 1.11022e-16 -1.5 0
      vertex -5.55112e-16 1.5 0
      vertex 1 1.5 2.22045e-16
    endloop
  endfacet
  facet normal 2.22045e-16 -1 4.93038e-32
    outer loop
      vertex 1 1.5 0
      vertex 1 1.5 2.22045e-16
      vertex -5.55112e-16 1.5 0
    endloop
  endfacet
  facet normal 1 0 0
    outer loop
      vertex 1 1 1.5
      vertex 1 1 2.22045e-16
      vertex 1 1.5 2.22045e-16
    endloop
  endfacet
  facet normal 1 0 0
    outer loop
      vertex 1 6.5 0
      vertex 1 1 1.5
      vertex 1 1.5 2.22045e-16
    endloop
  endfacet
  facet normal 1 0 0
    outer loop
      vertex 1 1.5 0
      vertex 1 6.5 0
      vertex 1 1.5 2.22045e-16
    endloop
  endfacet
  facet normal 1 0 0
    outer loop
      vertex 1 6.5 -1.5
      vertex 1 7 -1.5
      vertex 1 6.5 0
    endloop
  endfacet
  facet normal 1 0 0
    outer loop
      vertex 1 7 -1.5
      vertex 1 7 1.5
      vertex 1 6.5 0
    endloop
  endfacet
  facet normal 1 0 0
    outer loop
      vertex 1 6.5 0
      vertex 1 3.27579 1.5
      vertex 1 1 1.5
    endloop
  endfacet
  facet normal 1 0 0
    outer loop
      vertex 1 6.5 0
      vertex 1 7 1.5
      vertex 1 3.27579 1.5
    endloop
  endfacet
  facet normal 0 0 -1
    outer loop
      vertex 2.60922 2.60922 1.5
      vertex 3.27579 1 1.5
      vertex 1 3.27579 1.5
    endloop
  endfacet
  facet normal 0 0 -1
    outer loop
      vertex 1 3.27579 1.5
      vertex 3.27579 1 1.5
      vertex 1 1 1.5
    endloop
  endfacet
  facet normal 0.382683 0.92388 0
    outer loop
      vertex 0 3.69 1.5
      vertex 0 3.69 7.5
      vertex 1 3.27579 1.5
    endloop
  endfacet
  facet normal 0.382683 0.92388 0
    outer loop
      vertex 1 3.27579 1.5
      vertex 0 3.69 7.5
      vertex 2.60922 2.60922 7.5
    endloop
  endfacet
  facet normal 0.382683 0.92388 0
    outer loop
      vertex 1 3.27579 1.5
      vertex 2.60922 2.60922 7.5
      vertex 2.60922 2.60922 1.5
    endloop
  endfacet
  facet normal -0.92388 0.382683 0
    outer loop
      vertex -3.69 0 1.5
      vertex -3.69 0 7.5
      vertex -2.60922 2.60922 1.5
    endloop
  endfacet
  facet normal -0.92388 0.382683 0
    outer loop
      vertex -2.60922 2.60922 1.5
      vertex -3.69 0 7.5
      vertex -2.60922 2.60922 7.5
    endloop
  endfacet
  facet normal -0.92388 -0.382683 0
    outer loop
      vertex -3.69 0 1.5
      vertex -2.60922 -2.60922 1.5
      vertex -3.69 0 7.5
    endloop
  endfacet
  facet normal -0.92388 -0.382683 0
    outer loop
      vertex -3.69 0 7.5
      vertex -2.60922 -2.60922 1.5
      vertex -2.60922 -2.60922 7.5
    endloop
  endfacet
  facet normal 0 0 1
    outer loop
      vertex -3 0 7.5
      vertex -3.69 0 7.5
      vertex -2.60922 -2.60922 7.5
    endloop
  endfacet
  facet normal 0 0 1
    outer loop
      vertex 2.60922 -2.60922 7.5
      vertex 2.12132 -2.12132 7.5
      vertex 0 -3.69 7.5
    endloop
  endfacet
  facet normal 0 0 1
    outer loop
      vertex -3 0 7.5
      vertex -2.12132 2.12132 7.5
      vertex -2.60922 2.60922 7.5
    endloop
  endfacet
  facet normal 0 0 1
    outer loop
      vertex -2.12132 -2.12132 7.5
      vertex -3 0 7.5
      vertex -2.60922 -2.60922 7.5
    endloop
  endfacet
  facet normal 0 0 1
    outer loop
      vertex 2.12132 2.12132 7.5
      vertex 3 0 7.5
      vertex 3.69 0 7.5
    endloop
  endfacet
  facet normal 0 0 1
    outer loop
      vertex 0 -3.69 7.5
      vertex -2.12132 -2.12132 7.5
      vertex -2.60922 -2.60922 7.5
    endloop
  endfacet
  facet normal 0 0 1
    outer loop
      vertex -2.60922 2.60922 7.5
      vertex -3.69 0 7.5
      vertex -3 0 7.5
    endloop
  endfacet
  facet normal 0 0 1
    outer loop
      vertex 0 3.69 7.5
      vertex 0 3 7.5
      vertex 2.60922 2.60922 7.5
    endloop
  endfacet
  facet normal 0 0 1
    outer loop
      vertex 0 3.69 7.5
      vertex -2.60922 2.60922 7.5
      vertex 0 3 7.5
    endloop
  endfacet
  facet normal 0 0 1
    outer loop
      vertex 2.60922 2.60922 7.5
      vertex 2.12132 2.12132 7.5
      vertex 3.69 0 7.5
    endloop
  endfacet
  facet normal 0 0 1
    outer loop
      vertex 3.69 0 7.5
      vertex 3 0 7.5
      vertex 2.60922 -2.60922 7.5
    endloop
  endfacet
  facet normal 0 0 1
    outer loop
      vertex 3 0 7.5
      vertex 2.12132 -2.12132 7.5
      vertex 2.60922 -2.60922 7.5
    endloop
  endfacet
  facet normal 0 0 1
    outer loop
      vertex 2.12132 -2.12132 7.5
      vertex 0 -3 7.5
      vertex 0 -3.69 7.5
    endloop
  endfacet
  facet normal 0 0 1
    outer loop
      vertex 0 3 7.5
      vertex 2.12132 2.12132 7.5
      vertex 2.60922 2.60922 7.5
    endloop
  endfacet
  facet normal 0 0 1
    outer loop
      vertex 0 -3 7.5
      vertex -2.12132 -2.12132 7.5
      vertex 0 -3.69 7.5
    endloop
  endfacet
  facet normal 0 0 1
    outer loop
      vertex -2.12132 2.12132 7.5
      vertex 0 3 7.5
      vertex -2.60922 2.60922 7.5
    endloop
  endfacet
  facet normal 0.382683 -0.92388 0
    outer loop
      vertex 0 -3.69 7.5
      vertex 0 -3.69 1.5
      vertex 1 -3.27579 1.5
    endloop
  endfacet
  facet normal 0.382683 -0.92388 0
    outer loop
      vertex 2.60922 -2.60922 7.5
      vertex 0 -3.69 7.5
      vertex 2.60922 -2.60922 1.5
    endloop
  endfacet
  facet normal 0.382683 -0.92388 0
    outer loop
      vertex 2.60922 -2.60922 1.5
      vertex 0 -3.69 7.5
      vertex 1 -3.27579 1.5
    endloop
  endfacet
  facet normal 0 0 -1
    outer loop
      vertex 3.27579 -1 1.5
      vertex 2.60922 -2.60922 1.5
      vertex 1 -1 1.5
    endloop
  endfacet
  facet normal 0 0 -1
    outer loop
      vertex 1 -1 1.5
      vertex 2.60922 -2.60922 1.5
      vertex 1 -3.27579 1.5
    endloop
  endfacet
  facet normal 2.22045e-16 -1 4.93038e-32
    outer loop
      vertex 1 -1 1.5
      vertex 1 -1 2.22045e-16
      vertex 6.5 -1 1.44329e-15
    endloop
  endfacet
  facet normal 2.22045e-16 -1 4.93038e-32
    outer loop
      vertex 3.27579 -1 1.5
      vertex 1 -1 1.5
      vertex 6.5 -1 1.44329e-15
    endloop
  endfacet
  facet normal 2.22045e-16 -1 4.93038e-32
    outer loop
      vertex 6.5 -1 -1.5
      vertex 7 -1 -1.5
      vertex 6.5 -1 1.44329e-15
    endloop
  endfacet
  facet normal 2.22045e-16 -1 4.93038e-32
    outer loop
      vertex 7 -1 -1.5
      vertex 7 -1 1.5
      vertex 6.5 -1 1.44329e-15
    endloop
  endfacet
  facet normal 2.22045e-16 -1 4.93038e-32
    outer loop
      vertex 7 -1 1.5
      vertex 3.27579 -1 1.5
      vertex 6.5 -1 1.44329e-15
    endloop
  endfacet
  facet normal -1 -2.22045e-16 -2.22045e-16
    outer loop
      vertex 6.5 -1 -1.5
      vertex 6.5 -1 1.44329e-15
      vertex 6.5 1 -1.5
    endloop
  endfacet
  facet normal -1 -2.22045e-16 -2.22045e-16
    outer loop
      vertex 6.5 1 -1.5
      vertex 6.5 -1 1.44329e-15
      vertex 6.5 1 1.44329e-15
    endloop
  endfacet
  facet normal -2.22045e-16 1 -4.93038e-32
    outer loop
      vertex 1 1 2.22045e-16
      vertex 1 1 1.5
      vertex 6.5 1 1.44329e-15
    endloop
  endfacet
  facet normal -2.22045e-16 1 -4.93038e-32
    outer loop
      vertex 6.5 1 1.44329e-15
      vertex 1 1 1.5
      vertex 3.27579 1 1.5
    endloop
  endfacet
  facet normal -2.22045e-16 1 -4.93038e-32
    outer loop
      vertex 6.5 1 1.44329e-15
      vertex 3.27579 1 1.5
      vertex 7 1 1.5
    endloop
  endfacet
  facet normal -2.22045e-16 1 -4.93038e-32
    outer loop
      vertex 6.5 1 1.44329e-15
      vertex 7 1 1.5
      vertex 7 1 -1.5
    endloop
  endfacet
  facet normal -2.22045e-16 1 -4.93038e-32
    outer loop
      vertex 6.5 1 1.44329e-15
      vertex 7 1 -1.5
      vertex 6.5 1 -1.5
    endloop
  endfacet
  facet normal 0.92388 0.382683 0
    outer loop
      vertex 3.27579 1 1.5
      vertex 2.60922 2.60922 1.5
      vertex 2.60922 2.60922 7.5
    endloop
  endfacet
  facet normal 0.92388 0.382683 0
    outer loop
      vertex 3.69 0 7.5
      vertex 3.27579 1 1.5
      vertex 2.60922 2.60922 7.5
    endloop
  endfacet
  facet normal 0.92388 0.382683 0
    outer loop
      vertex 3.69 0 1.5
      vertex 3.27579 1 1.5
      vertex 3.69 0 7.5
    endloop
  endfacet
  facet normal 0.92388 -0.382683 0
    outer loop
      vertex 2.60922 -2.60922 7.5
      vertex 2.60922 -2.60922 1.5
      vertex 3.27579 -1 1.5
    endloop
  endfacet
  facet normal 0.92388 -0.382683 0
    outer loop
      vertex 3.69 0 1.5
      vertex 2.60922 -2.60922 7.5
      vertex 3.27579 -1 1.5
    endloop
  endfacet
  facet normal 0.92388 -0.382683 0
    outer loop
      vertex 3.69 0 7.5
      vertex 2.60922 -2.60922 7.5
      vertex 3.69 0 1.5
    endloop
  endfacet
  facet normal 0.923879 0.382684 0
    outer loop
      vertex -3 0 7.5
      vertex -2.12132 -2.12132 7.5
      vertex -2.12132 -2.12132 2
    endloop
  endfacet
  facet normal 0.923879 0.382684 0
    outer loop
      vertex -3 0 2
      vertex -3 0 7.5
      vertex -2.12132 -2.12132 2
    endloop
  endfacet
  facet normal 0.382684 0.923879 0
    outer loop
      vertex 0 -3 7.5
      vertex 0 -3 2
      vertex -2.12132 -2.12132 7.5
    endloop
  endfacet
  facet normal 0.382684 0.923879 0
    outer loop
      vertex -2.12132 -2.12132 7.5
      vertex 0 -3 2
      vertex -2.12132 -2.12132 2
    endloop
  endfacet
  facet normal -0.382684 0.923879 0
    outer loop
      vertex 2.12132 -2.12132 7.5
      vertex 2.12132 -2.12132 2
      vertex 0 -3 7.5
    endloop
  endfacet
  facet normal -0.382684 0.923879 0
    outer loop
      vertex 0 -3 7.5
      vertex 2.12132 -2.12132 2
      vertex 0 -3 2
    endloop
  endfacet
  facet normal -0.923879 0.382684 0
    outer loop
      vertex 3 0 7.5
      vertex 3 0 2
      vertex 2.12132 -2.12132 7.5
    endloop
  endfacet
  facet normal -0.923879 0.382684 0
    outer loop
      vertex 2.12132 -2.12132 7.5
      vertex 3 0 2
      vertex 2.12132 -2.12132 2
    endloop
  endfacet
  facet normal -0.923879 -0.382684 0
    outer loop
      vertex 3 0 7.5
      vertex 2.12132 2.12132 7.5
      vertex 3 0 2
    endloop
  endfacet
  facet normal -0.923879 -0.382684 0
    outer loop
      vertex 3 0 2
      vertex 2.12132 2.12132 7.5
      vertex 2.12132 2.12132 2
    endloop
  endfacet
  facet normal -0.382684 -0.923879 0
    outer loop
      vertex 2.12132 2.12132 2
      vertex 2.12132 2.12132 7.5
      vertex 0 3 7.5
    endloop
  endfacet
  facet normal -0.382684 -0.923879 0
    outer loop
      vertex 0 3 2
      vertex 2.12132 2.12132 2
      vertex 0 3 7.5
    endloop
  endfacet
  facet normal 0.382684 -0.923879 0
    outer loop
      vertex 0 3 2
      vertex 0 3 7.5
      vertex -2.12132 2.12132 7.5
    endloop
  endfacet
  facet normal 0.382684 -0.923879 0
    outer loop
      vertex -2.12132 2.12132 2
      vertex 0 3 2
      vertex -2.12132 2.12132 7.5
    endloop
  endfacet
  facet normal 0.923879 -0.382684 0
    outer loop
      vertex -2.12132 2.12132 2
      vertex -2.12132 2.12132 7.5
      vertex -3 0 7.5
    endloop
  endfacet
  facet normal 0.923879 -0.382684 0
    outer loop
      vertex -3 0 2
      vertex -2.12132 2.12132 2
      vertex -3 0 7.5
    endloop
  endfacet
  facet normal -2.22045e-16 -4.93038e-32 1
    outer loop
      vertex 7 1 1.5
      vertex 3.27579 1 1.5
      vertex 3.69 0 1.5
    endloop
  endfacet
  facet normal -2.22045e-16 -4.93038e-32 1
    outer loop
      vertex 3.27579 -1 1.5
      vertex 7 1 1.5
      vertex 3.69 0 1.5
    endloop
  endfacet
  facet normal -2.22045e-16 -4.93038e-32 1
    outer loop
      vertex 3.27579 -1 1.5
      vertex 7 -1 1.5
      vertex 7 1 1.5
    endloop
  endfacet
  facet normal 1 2.22045e-16 2.22045e-16
    outer loop
      vertex 7 1 -1.5
      vertex 7 1 1.5
      vertex 7 -1 1.5
    endloop
  endfacet
  facet normal 1 2.22045e-16 2.22045e-16
    outer loop
      vertex 7 -1 -1.5
      vertex 7 1 -1.5
      vertex 7 -1 1.5
    endloop
  endfacet
  facet normal 2.22045e-16 4.93038e-32 -1
    outer loop
      vertex 6.5 1 -1.5
      vertex 7 1 -1.5
      vertex 6.5 -1 -1.5
    endloop
  endfacet
  facet normal 2.22045e-16 4.93038e-32 -1
    outer loop
      vertex 6.5 -1 -1.5
      vertex 7 1 -1.5
      vertex 7 -1 -1.5
    endloop
  endfacet
  facet normal 0 0 1
    outer loop
      vertex -2.12132 -2.12132 2
      vertex 0 -3 2
      vertex 2.12132 -2.12132 2
    endloop
  endfacet
  facet normal 0 0 1
    outer loop
      vertex 2.12132 2.12132 2
      vertex -2.12132 -2.12132 2
      vertex 3 0 2
    endloop
  endfacet
  facet normal 0 0 1
    outer loop
      vertex 3 0 2
      vertex -2.12132 -2.12132 2
      vertex 2.12132 -2.12132 2
    endloop
  endfacet
  facet normal 0 0 1
    outer loop
      vertex 0 3 2
      vertex -2.12132 -2.12132 2
      vertex 2.12132 2.12132 2
    endloop
  endfacet
  facet normal 0 0 1
    outer loop
      vertex -2.12132 2.12132 2
      vertex -2.12132 -2.12132 2
      vertex 0 3 2
    endloop
  endfacet
  facet normal 0 0 1
    outer loop
      vertex -3 0 2
      vertex -2.12132 -2.12132 2
      vertex -2.12132 2.12132 2
    endloop
  endfacet
endsolid OpenSCAD_Model
